<svg width="268.92499999999995px" height="136.16000366210938px" xmlns="http://www.w3.org/2000/svg" viewBox="115.53750000000002 6.9199981689453125 268.92499999999995 136.16000366210938" style="background: rgba(208, 16, 18, 0);" preserveAspectRatio="xMidYMid"><defs><filter id="editing-extrusion" x="-100%" y="-100%" width="300%" height="300%"><feFlood result="color1" flood-color="#ffffff"></feFlood><feConvolveMatrix order="8,8" divisor="1" kernelMatrix="1 0 0 0 0 0 0 0 0 1 0 0 0 0 0 0 0 0 1 0 0 0 0 0 0 0 0 1 0 0 0 0 0 0 0 0 1 0 0 0 0 0 0 0 0 1 0 0 0 0 0 0 0 0 1 0 0 0 0 0 0 0 0 1" in="SourceAlpha" result="extrude"></feConvolveMatrix><feComposite in="color1" in2="extrude" result="comp-extrude" operator="in"></feComposite><feOffset dx="4" dy="4" in="comp-extrude" result="offset-extrude"></feOffset><feMerge><feMergeNode in="offset-extrude"></feMergeNode><feMergeNode in="SourceGraphic"></feMergeNode></feMerge></filter></defs><g filter="url(#editing-extrusion)"><g transform="translate(155.34502410888672, 107)"><path d="M33.98-39.17L13.63-39.17L13.63-24.32L29.76-24.32L29.76-19.20L13.63-19.20L13.63 0L8 0L8-44.54L33.98-44.54L33.98-39.17ZM47.36-40.96L47.36-40.96Q45.57-40.96 44.45-42.11L44.45-42.11L44.45-42.11Q43.33-43.26 43.33-45.06L43.33-45.06L43.33-45.06Q43.33-46.85 44.45-48L44.45-48L44.45-48Q45.57-49.15 47.36-49.15L47.36-49.15L47.36-49.15Q49.15-49.15 50.27-48L50.27-48L50.27-48Q51.39-46.85 51.39-45.06L51.39-45.06L51.39-45.06Q51.39-43.26 50.27-42.11L50.27-42.11L50.27-42.11Q49.15-40.96 47.36-40.96L47.36-40.96ZM44.54-33.41L50.18-33.41L50.18 0L44.54 0L44.54-33.41ZM69.95-45.31L69.95-33.41L79.17-33.41L79.17-28.54L69.95-28.54L69.95-9.41L69.95-9.41Q69.95-7.04 71.01-5.60L71.01-5.60L71.01-5.60Q72.06-4.16 74.11-4.16L74.11-4.16L74.11-4.16Q75.52-4.16 76.64-4.45L76.64-4.45L76.64-4.45Q77.76-4.74 79.17-5.38L79.17-5.38L79.17-0.38L79.17-0.38Q77.70 0.32 76.35 0.54L76.35 0.54L76.35 0.54Q75.01 0.77 73.09 0.77L73.09 0.77L73.09 0.77Q68.99 0.77 66.66-1.86L66.66-1.86L66.66-1.86Q64.32-4.48 64.32-8.83L64.32-8.83L64.32-28.54L57.92-28.54L57.92-33.41L64.32-33.41L64.32-42.37L69.95-45.31ZM99.58 0L99.58-38.91L86.14-38.91L86.14-44.54L118.66-44.54L118.66-38.91L105.22-38.91L105.22 0L99.58 0ZM141.50-34.18L143.49-34.18L143.49-27.97L142.53-27.97L142.53-27.97Q139.52-27.97 137.12-26.88L137.12-26.88L137.12-26.88Q134.72-25.79 133.12-23.74L133.12-23.74L133.12 0L127.49 0L127.49-25.98L126.08-33.41L131.71-33.41L132.86-27.46L132.86-27.46Q135.49-31.30 137.31-32.74L137.31-32.74L137.31-32.74Q139.14-34.18 141.50-34.18L141.50-34.18ZM175.30-33.41L181.31-33.41L162.18 14.85L156.42 14.85L162.18 0.38L148.93-33.41L154.69-33.41L165.12-6.02L175.30-33.41Z" fill="#d01012"></path></g></g><style>text {
  font-size: 64px;
  font-family: Arial Black;
  dominant-baseline: central;
  text-anchor: middle;
}</style></svg>